<?xml version="1.0" encoding="utf-8"?>
<!-- Generator: Adobe Illustrator 19.1.0, SVG Export Plug-In . SVG Version: 6.00 Build 0)  -->
<svg version="1.1" id="Layer_1" xmlns="http://www.w3.org/2000/svg" xmlns:xlink="http://www.w3.org/1999/xlink" x="0px" y="0px"
	 viewBox="0 0 229.3 148.5" enable-background="new 0 0 229.3 148.5" xml:space="preserve">
<g>
	<g>
		<path fill="#82BC00" d="M104.6,48.9h-9.2V29.8h9.2c0-0.4,0-1,0-1.6c0-0.7,0-1.3,0-1.6C104.6,8.9,114.8,0,135.3,0
			c0.4,0,1.1,0,1.9,0c0.8,0.1,1.5,0.2,2.1,0.2v17.2h-0.6c-3.7,0-6.2,0.7-7.5,2.1c-1.3,1.4-1.9,4.2-1.9,8.2v2.1h10v19.1h-10v66.4
			h-24.7V48.9z"/>
		<path fill="#F7A800" d="M104.6,115.2h24.7V68.5C125.7,86.5,116.9,102.6,104.6,115.2L104.6,115.2z"/>
		<path fill="#82BC00" d="M66.2,29.8v9.6c-5.6-7.2-13.6-10.8-24-10.8c-11.7,0-21.6,4.4-29.8,13C4.1,50.2,0,60.4,0,72.1
			c0,13.5,5,24.7,15,33.6c7.5,6.7,16.4,10,26.7,10c10.1,0,18.5-3.3,25.3-10v9.5h24.4V29.8H66.2z M61.4,87c-3.9,4-8.6,6-14.1,6
			c-6.4,0-11.6-2-15.8-6c-4.2-4-6.3-9-6.3-15c0-5.8,2-10.8,6.1-15c4.1-4.1,9.1-6.2,15-6.2c5.9,0,10.9,2,14.9,6.1c4,4.1,6,9.2,6,15.4
			C67.2,78.1,65.2,83,61.4,87z"/>
		<path fill="#82BC00" d="M201.3,84.7h26.9c-3.2,10.3-8.7,18.3-16.5,24.1c-7.8,5.8-16.9,8.7-27.3,8.7c-12.9,0-23.7-4.6-32.3-13.7
			c-8.4-8.8-12.6-19.4-12.6-31.8c0-12,4.3-22.4,13.1-31.4c8.7-8.9,19.2-13.4,31.5-13.4c10.8,0,20,2.9,27.6,8.6
			c7.6,5.7,13.1,14,16.5,24.8h-26.9c-3.6-6-9.4-9.1-17.5-9.1c-5.6,0-10.2,1.9-13.9,5.8c-3.7,3.9-5.5,8.7-5.5,14.6
			c0,6.5,1.9,11.6,5.6,15.4c3.7,3.8,8.6,5.7,14.8,5.7C191.7,93.1,197.2,90.3,201.3,84.7z"/>
		<path fill="#FFD700" d="M104.6,115.2L104.6,115.2l24.7,0V96C123.6,105,114.9,111.9,104.6,115.2z"/>
	</g>
	<g>
		<path fill="#82BC00" d="M12.4,148.2V146h0c-1,1.7-2.8,2.5-4.7,2.5c-4.6,0-7.3-3.5-7.3-7.2c0-3.3,2.4-7.3,7.3-7.3
			c1.9,0,3.7,0.8,4.7,2.3h0v-1.9H15v13.7H12.4z M7.7,136.4c-3.2,0-4.7,2.7-4.7,4.9c0,2.5,2,4.8,4.7,4.8c2.7,0,4.8-2.2,4.8-4.8
			C12.5,138.4,10.4,136.4,7.7,136.4z"/>
		<path fill="#82BC00" d="M23.7,138.1c-0.1-1.1-0.8-1.7-1.8-1.7c-0.9,0-1.6,0.6-1.6,1.5c0,1.1,1,1.4,2.1,1.8
			c1.1,0.3,4.1,1.2,4.1,4.5c0,2.4-1.7,4.4-4.6,4.4c-1.7,0-4.9-1.1-4.9-4.8h2.6c0.1,1.5,0.9,2.5,2.3,2.5c1.2,0,2-0.7,2-1.9
			c0-1.2-1.1-1.6-2.4-2.1c-1.5-0.5-3.9-1.2-3.9-4.1c0-2,1.7-4,4.3-4c1.6,0,4.1,1,4.2,4H23.7z"/>
		<path fill="#82BC00" d="M31.4,132.9h-2.6v-3h2.6V132.9z M31.4,148.2h-2.6v-13.7h2.6V148.2z"/>
		<path fill="#82BC00" d="M45.5,148.2V146h0c-1,1.7-2.8,2.5-4.7,2.5c-4.6,0-7.3-3.5-7.3-7.2c0-3.3,2.4-7.3,7.3-7.3
			c1.9,0,3.7,0.8,4.7,2.3h0v-1.9h2.6v13.7H45.5z M40.8,136.4c-3.2,0-4.7,2.7-4.7,4.9c0,2.5,2,4.8,4.7,4.8c2.7,0,4.8-2.2,4.8-4.8
			C45.5,138.4,43.4,136.4,40.8,136.4z"/>
		<path fill="#82BC00" d="M60,148.2v-7.4c0-1.1,0-4.3-3.4-4.3c-2.2,0-3.6,1.5-3.6,4.3v7.5h-2.6v-13.7h2.4v1.5h0
			c1.4-1.8,3.5-1.8,4-1.8c2.1,0,3.9,0.9,4.9,2.5c0.5,0.9,0.8,2,0.9,3.5v8.1H60z"/>
		<path fill="#82BC00" d="M72.8,148.2v-11.4h-1.2v-2.4h1.2v-0.7c0-1.5,0.6-2.5,1.6-3.2c1.1-0.7,1.8-0.7,3.3-0.7v2.3
			c-1.7,0-2.4,0.6-2.4,1.6v0.7h2.4v2.4h-2.4v11.4H72.8z"/>
		<path fill="#82BC00" d="M85.7,148.5c-4.6,0-7.4-3.8-7.4-7.3c0-3.7,3.1-7.1,7.4-7.1c4.2,0,7.4,3.3,7.4,7.2
			C93.1,144.6,90.4,148.5,85.7,148.5z M85.7,136.4c-2.9,0-4.8,2.4-4.8,4.8c0,2.5,2,4.9,4.8,4.9c2.8,0,4.8-2.3,4.8-4.9
			C90.5,138.8,88.6,136.4,85.7,136.4z"/>
		<path fill="#82BC00" d="M102.4,148.5c-4.6,0-7.4-3.8-7.4-7.3c0-3.7,3.1-7.1,7.4-7.1c4.2,0,7.4,3.3,7.4,7.2
			C109.8,144.6,107.1,148.5,102.4,148.5z M102.4,136.4c-2.9,0-4.8,2.4-4.8,4.8c0,2.5,2,4.9,4.8,4.9c2.8,0,4.8-2.3,4.8-4.9
			C107.3,138.8,105.3,136.4,102.4,136.4z"/>
		<path fill="#82BC00" d="M123.3,148.2v-2h0c-1.1,1.5-2.8,2.3-4.9,2.3c-4.6,0-7.1-3.5-7.1-7.2c0-3.3,2.3-7.3,7.1-7.3
			c1.9,0,3.7,0.8,4.7,2.1h0v-6.3h2.6v18.3H123.3z M118.5,136.4c-3.2,0-4.7,2.7-4.7,4.9c0,2.5,2,4.8,4.7,4.8c2.7,0,4.8-2.2,4.8-4.8
			C123.3,138.4,121.2,136.4,118.5,136.4z"/>
		<path fill="#82BC00" d="M146,139c-0.4-0.9-1.4-2.6-3.9-2.6c-3.3,0-4.5,2.8-4.5,4.8c0,2.4,1.5,4.9,4.5,4.9c1.9,0,3.2-1.1,3.9-2.5
			h2.9c-1,3-3.7,4.9-6.8,4.9c-4.5,0-7-3.7-7-7.2c0-3.7,2.7-7.2,7.1-7.2c3.9,0,6.2,2.9,6.7,4.9H146z"/>
		<path fill="#82BC00" d="M160.9,148.2v-7.4c0-1.1,0-4.3-3.4-4.3c-2.2,0-3.6,1.5-3.6,4.3v7.5h-2.6v-18.3h2.6v6.1h0
			c1.2-1.8,3.3-1.8,3.8-1.8c2.1,0,3.9,0.9,4.8,2.5c0.5,0.9,0.8,2,0.9,3.5v8.1H160.9z"/>
		<path fill="#82BC00" d="M177.5,148.2V146h0c-1,1.7-2.8,2.5-4.7,2.5c-4.6,0-7.3-3.5-7.3-7.2c0-3.3,2.4-7.3,7.3-7.3
			c1.9,0,3.7,0.8,4.7,2.3h0v-1.9h2.6v13.7H177.5z M172.8,136.4c-3.2,0-4.7,2.7-4.7,4.9c0,2.5,2,4.8,4.7,4.8c2.7,0,4.8-2.2,4.8-4.8
			C177.5,138.4,175.4,136.4,172.8,136.4z"/>
		<path fill="#82BC00" d="M192,148.2v-7.4c0-1.1,0-4.3-3.4-4.3c-2.2,0-3.6,1.5-3.6,4.3v7.5h-2.6v-13.7h2.4v1.5h0
			c1.4-1.8,3.5-1.8,4-1.8c2.1,0,3.9,0.9,4.8,2.5c0.5,0.9,0.8,2,0.9,3.5v8.1H192z"/>
		<path fill="#82BC00" d="M206.4,148.2v-7.4c0-1.1,0-4.3-3.4-4.3c-2.2,0-3.6,1.5-3.6,4.3v7.5h-2.6v-13.7h2.4v1.5h0.1
			c1.4-1.8,3.5-1.8,4-1.8c2.1,0,3.9,0.9,4.8,2.5c0.5,0.9,0.8,2,0.9,3.5v8.1H206.4z"/>
		<path fill="#82BC00" d="M213.2,142.4c0.6,2.6,2.8,3.7,4.5,3.7c1.9,0,3.3-1.1,3.9-2.3h2.6c-1.3,3.5-4.5,4.7-6.6,4.7
			c-3.9,0-7-3.3-7-7.2c0-4.1,3.2-7.2,7-7.2c3.7,0,7,3,7,7c0,0.4,0,1.1-0.1,1.3H213.2z M222,140.4c-0.1-2-2-4-4.4-4
			c-2.5,0-4.3,2-4.4,4H222z"/>
		<path fill="#82BC00" d="M229.3,148.2h-2.6v-18.3h2.6V148.2z"/>
	</g>
</g>
</svg>
