<?xml version="1.0" encoding="utf-8"?>
<!-- Generator: Adobe Illustrator 19.1.0, SVG Export Plug-In . SVG Version: 6.00 Build 0)  -->
<svg version="1.1" id="Layer_1" xmlns="http://www.w3.org/2000/svg" xmlns:xlink="http://www.w3.org/1999/xlink" x="0px" y="0px"
	 viewBox="0 0 158.4 102.6" enable-background="new 0 0 158.4 102.6" xml:space="preserve">
<g>
	<g>
		<path fill="#FFFFFF" d="M90.6,13.5c0.9-1,2.6-1.5,5.2-1.5h0.4V0.1c-0.4,0-0.8,0-1.4-0.1c-0.6,0-1,0-1.3,0
			C79.3,0,72.2,6.1,72.2,18.4c0,0.2,0,0.6,0,1.1c0,0.4,0,0.8,0,1.1h-6.4v13.2h6.4v45.8c8.5-8.7,14.6-19.8,17-32.3V33.8h6.9V20.6
			h-6.9v-1.4C89.3,16.3,89.7,14.5,90.6,13.5z"/>
		<path fill="#FFFFFF" d="M45.7,20.6v6.6c-3.9-5-9.4-7.5-16.6-7.5c-8.1,0-14.9,3-20.6,9c-5.7,6-8.5,13-8.5,21.1
			c0,9.3,3.4,17,10.3,23.2c5.2,4.6,11.4,6.9,18.5,6.9c7,0,12.8-2.3,17.5-6.9v6.6h16.8v-59H45.7z M42.4,60.1
			c-2.7,2.7-5.9,4.1-9.7,4.1c-4.4,0-8-1.4-10.9-4.1c-2.9-2.7-4.3-6.2-4.3-10.4c0-4,1.4-7.5,4.2-10.3c2.8-2.9,6.3-4.3,10.4-4.3
			c4.1,0,7.5,1.4,10.3,4.2c2.8,2.8,4.1,6.4,4.1,10.6C46.4,53.9,45.1,57.3,42.4,60.1z"/>
		<path fill="#FFFFFF" d="M139,58.5h18.6c-2.2,7.1-6,12.7-11.4,16.7c-5.4,4-11.7,6-18.9,6c-8.9,0-16.4-3.2-22.3-9.5
			c-5.8-6.1-8.7-13.4-8.7-22c0-8.3,3-15.5,9-21.7c6-6.2,13.3-9.2,21.8-9.2c7.5,0,13.8,2,19.1,5.9c5.2,4,9,9.7,11.4,17.2H139
			c-2.5-4.2-6.5-6.3-12.1-6.3c-3.9,0-7.1,1.3-9.6,4c-2.5,2.7-3.8,6-3.8,10.1c0,4.5,1.3,8,3.8,10.7c2.6,2.6,6,4,10.2,4
			C132.4,64.3,136.2,62.4,139,58.5z"/>
		<path fill="#FFFFFF" d="M72.2,79.6L72.2,79.6l17,0V66.3C85.4,72.5,79.4,77.3,72.2,79.6z"/>
	</g>
	<g>
		<path fill="#FFFFFF" d="M8.6,102.3v-1.5h0c-0.7,1.2-1.9,1.7-3.2,1.7c-3.2,0-5-2.4-5-4.9c0-2.3,1.6-5,5-5c1.3,0,2.5,0.5,3.2,1.6h0
			v-1.3h1.8v9.5H8.6z M5.3,94.2c-2.2,0-3.2,1.9-3.2,3.4c0,1.7,1.3,3.3,3.2,3.3c1.9,0,3.3-1.5,3.3-3.3C8.6,95.6,7.2,94.2,5.3,94.2z"
			/>
		<path fill="#FFFFFF" d="M16.4,95.4c-0.1-0.8-0.6-1.1-1.2-1.1s-1.1,0.4-1.1,1c0,0.8,0.7,1,1.5,1.2c0.7,0.2,2.9,0.8,2.9,3.1
			c0,1.7-1.2,3-3.2,3c-1.2,0-3.3-0.8-3.3-3.4h1.8c0.1,1.1,0.6,1.7,1.6,1.7c0.8,0,1.4-0.5,1.4-1.3c0-0.8-0.7-1.1-1.7-1.5
			c-1-0.4-2.7-0.8-2.7-2.9c0-1.4,1.2-2.7,3-2.7c1.1,0,2.9,0.7,2.9,2.8H16.4z"/>
		<path fill="#FFFFFF" d="M21.7,91.8h-1.8v-2.1h1.8V91.8z M21.7,102.3h-1.8v-9.5h1.8V102.3z"/>
		<path fill="#FFFFFF" d="M31.4,102.3v-1.5h0c-0.7,1.2-1.9,1.7-3.2,1.7c-3.2,0-5-2.4-5-4.9c0-2.3,1.6-5,5-5c1.3,0,2.5,0.5,3.2,1.6h0
			v-1.3h1.8v9.5H31.4z M28.2,94.2c-2.2,0-3.2,1.9-3.2,3.4c0,1.7,1.4,3.3,3.2,3.3c1.9,0,3.3-1.5,3.3-3.3C31.4,95.6,30,94.2,28.2,94.2
			z"/>
		<path fill="#FFFFFF" d="M41.4,102.3v-5.1c0-0.7,0-3-2.4-3c-1.5,0-2.5,1-2.5,2.9v5.2h-1.8v-9.5h1.7v1h0c1-1.3,2.4-1.3,2.8-1.3
			c1.5,0,2.7,0.6,3.4,1.7c0.4,0.6,0.6,1.4,0.6,2.4v5.6H41.4z"/>
		<path fill="#FFFFFF" d="M50.2,102.3v-7.8h-0.8v-1.6h0.8v-0.5c0-1,0.4-1.7,1.1-2.2c0.8-0.5,1.3-0.5,2.3-0.5v1.6
			c-1.2,0-1.7,0.4-1.7,1.1v0.5h1.7v1.6H52v7.8H50.2z"/>
		<path fill="#FFFFFF" d="M59.2,102.6c-3.2,0-5.1-2.6-5.1-5c0-2.6,2.2-4.9,5.1-4.9c2.9,0,5.1,2.3,5.1,5
			C64.3,99.9,62.4,102.6,59.2,102.6z M59.2,94.2c-2,0-3.3,1.7-3.3,3.4c0,1.7,1.4,3.4,3.3,3.4c1.9,0,3.3-1.6,3.3-3.4
			C62.5,95.9,61.2,94.2,59.2,94.2z"/>
		<path fill="#FFFFFF" d="M70.7,102.6c-3.2,0-5.1-2.6-5.1-5c0-2.6,2.2-4.9,5.1-4.9c2.9,0,5.1,2.3,5.1,5
			C75.9,99.9,74,102.6,70.7,102.6z M70.7,94.2c-2,0-3.3,1.7-3.3,3.4c0,1.7,1.4,3.4,3.3,3.4c1.9,0,3.3-1.6,3.3-3.4
			C74.1,95.9,72.7,94.2,70.7,94.2z"/>
		<path fill="#FFFFFF" d="M85.1,102.3V101h0c-0.8,1-2,1.6-3.3,1.6c-3.1,0-4.9-2.4-4.9-4.9c0-2.3,1.6-5,4.9-5c1.3,0,2.5,0.5,3.2,1.4
			h0v-4.3h1.8v12.6H85.1z M81.9,94.2c-2.2,0-3.2,1.9-3.2,3.4c0,1.7,1.4,3.3,3.2,3.3c1.9,0,3.3-1.5,3.3-3.3
			C85.1,95.6,83.7,94.2,81.9,94.2z"/>
		<path fill="#FFFFFF" d="M100.9,96c-0.3-0.6-1-1.8-2.7-1.8c-2.3,0-3.1,1.9-3.1,3.4c0,1.6,1,3.4,3.1,3.4c1.3,0,2.2-0.8,2.7-1.7h2
			c-0.7,2.1-2.6,3.4-4.7,3.4c-3.1,0-4.9-2.5-4.9-5c0-2.6,1.9-5,4.9-5c2.7,0,4.3,2,4.6,3.4H100.9z"/>
		<path fill="#FFFFFF" d="M111.1,102.3v-5.1c0-0.7,0-3-2.4-3c-1.5,0-2.5,1-2.5,2.9v5.2h-1.8V89.7h1.8v4.2h0c0.9-1.3,2.3-1.3,2.6-1.3
			c1.5,0,2.7,0.6,3.4,1.7c0.4,0.6,0.6,1.4,0.6,2.4v5.6H111.1z"/>
		<path fill="#FFFFFF" d="M122.6,102.3v-1.5h0c-0.7,1.2-1.9,1.7-3.2,1.7c-3.2,0-5-2.4-5-4.9c0-2.3,1.6-5,5-5c1.3,0,2.5,0.5,3.2,1.6
			h0v-1.3h1.8v9.5H122.6z M119.3,94.2c-2.2,0-3.2,1.9-3.2,3.4c0,1.7,1.4,3.3,3.2,3.3c1.9,0,3.3-1.5,3.3-3.3
			C122.6,95.6,121.2,94.2,119.3,94.2z"/>
		<path fill="#FFFFFF" d="M132.6,102.3v-5.1c0-0.7,0-3-2.4-3c-1.5,0-2.5,1-2.5,2.9v5.2H126v-9.5h1.7v1h0c1-1.3,2.4-1.3,2.8-1.3
			c1.5,0,2.7,0.6,3.3,1.7c0.4,0.6,0.6,1.4,0.6,2.4v5.6H132.6z"/>
		<path fill="#FFFFFF" d="M142.6,102.3v-5.1c0-0.7,0-3-2.4-3c-1.5,0-2.5,1-2.5,2.9v5.2h-1.8v-9.5h1.7v1h0c1-1.3,2.4-1.3,2.8-1.3
			c1.5,0,2.7,0.6,3.4,1.7c0.4,0.6,0.6,1.4,0.6,2.4v5.6H142.6z"/>
		<path fill="#FFFFFF" d="M147.2,98.4c0.4,1.8,1.9,2.6,3.1,2.6c1.3,0,2.3-0.8,2.7-1.6h1.8c-0.9,2.4-3.1,3.2-4.5,3.2
			c-2.7,0-4.8-2.3-4.8-5c0-2.8,2.2-5,4.9-5c2.6,0,4.8,2.1,4.8,4.9c0,0.3,0,0.8-0.1,0.9H147.2z M153.4,97c-0.1-1.4-1.4-2.8-3.1-2.8
			c-1.7,0-3,1.4-3.1,2.8H153.4z"/>
		<path fill="#FFFFFF" d="M158.4,102.3h-1.8V89.7h1.8V102.3z"/>
	</g>
</g>
</svg>
