<?xml version="1.0" encoding="utf-8"?>
<!-- Generator: Adobe Illustrator 19.1.0, SVG Export Plug-In . SVG Version: 6.00 Build 0)  -->
<svg version="1.1" id="Icons" xmlns="http://www.w3.org/2000/svg" xmlns:xlink="http://www.w3.org/1999/xlink" x="0px" y="0px"
	 viewBox="-289 381 32 32" enable-background="new -289 381 32 32" xml:space="preserve">
<g>
	<path fill="#FFFFFF" d="M-267.4,390.9h-1c-0.3,0-0.5,0.2-0.5,0.5v1c0,0.3,0.2,0.5,0.5,0.5h1c0.3,0,0.5-0.2,0.5-0.5v-1
		C-266.9,391.1-267.1,390.9-267.4,390.9z"/>
	<path fill="#FFFFFF" d="M-268.4,397c0,2.5-2.1,4.6-4.6,4.6s-4.6-2.1-4.6-4.6c0-0.3,0-0.7,0.1-1h-1.6l0,0v4.1v2c0,0.6,0.5,1,1,1
		h10.2c0.6,0,1-0.5,1-1v-2V396l0,0h-1.6C-268.4,396.3-268.4,396.7-268.4,397z"/>
	<path fill="#FFFFFF" d="M-273,381c-8.8,0-16,7.2-16,16s7.2,16,16,16s16-7.2,16-16S-264.2,381-273,381z M-267.6,405.1h-10.9
		c-1.5,0-2.7-1.2-2.7-2.7v-10.9c0-1.5,1.2-2.7,2.7-2.7h10.9c1.5,0,2.7,1.2,2.7,2.7v10.9C-264.9,403.9-266.1,405.1-267.6,405.1z"/>
	<path fill="#FFFFFF" d="M-273,400.1c1.7,0,3.1-1.4,3.1-3.1c0-0.4-0.1-0.7-0.2-1h-5.8c-0.1,0.3-0.2,0.7-0.2,1
		C-276.1,398.7-274.7,400.1-273,400.1z"/>
</g>
</svg>
