<?xml version="1.0" encoding="utf-8"?>
<!-- Generator: Adobe Illustrator 19.1.0, SVG Export Plug-In . SVG Version: 6.00 Build 0)  -->
<svg version="1.1" id="Icons" xmlns="http://www.w3.org/2000/svg" xmlns:xlink="http://www.w3.org/1999/xlink" x="0px" y="0px"
	 viewBox="-289 381 32 32" enable-background="new -289 381 32 32" xml:space="preserve">
<path fill="#FFFFFF" d="M-273,381c-8.8,0-16,7.2-16,16s7.2,16,16,16s16-7.2,16-16S-264.2,381-273,381z M-263.8,392.3
	c0,0.2,0,0.4,0,0.6c0,6.3-4.8,13.5-13.5,13.5c-2.7,0-5.2-0.8-7.3-2.1c0.4,0,0.7,0.1,1.1,0.1c2.2,0,4.3-0.8,5.9-2
	c-2.1,0-3.8-1.4-4.4-3.3c0.3,0.1,0.6,0.1,0.9,0.1c0.4,0,0.9-0.1,1.3-0.2c-2.2-0.4-3.8-2.4-3.8-4.7c0,0,0,0,0-0.1
	c0.6,0.4,1.4,0.6,2.1,0.6c-1.3-0.9-2.1-2.3-2.1-3.9c0-0.9,0.2-1.7,0.6-2.4c2.3,2.9,5.8,4.8,9.8,5c-0.1-0.3-0.1-0.7-0.1-1.1
	c0-2.6,2.1-4.7,4.7-4.7c1.4,0,2.6,0.6,3.5,1.5c1.1-0.2,2.1-0.6,3-1.2c-0.4,1.1-1.1,2-2.1,2.6c1-0.1,1.9-0.4,2.7-0.7
	C-262.1,390.8-262.9,391.6-263.8,392.3z"/>
</svg>
